<svg width="1216" height="295" viewBox="0 0 1216 295" fill="none" xmlns="http://www.w3.org/2000/svg">
<mask id="path-1-inside-1_614_397" fill="white">
<path d="M0 0H1216V295H0V0Z"/>
</mask>
<path d="M0 1H1216V-1H0V1ZM1216 294H0V296H1216V294Z" fill="black" fill-opacity="0.34" mask="url(#path-1-inside-1_614_397)"/>
<path d="M8.65767 89.5988V58.6909H154.28V89.5988H99.9961V236H62.9413V89.5988H8.65767ZM178.261 236V58.6909H215.749V131.848H291.85V58.6909H329.251V236H291.85V162.756H215.749V236H178.261ZM360.159 236V58.6909H479.635V89.5988H397.647V131.848H473.488V162.756H397.647V205.092H479.981V236H360.159ZM565.865 236V58.6909H636.858C649.902 58.6909 660.782 60.6244 669.498 64.4915C678.213 68.3586 684.764 73.7264 689.151 80.5948C693.537 87.4055 695.73 95.2551 695.73 104.144C695.73 111.07 694.345 117.159 691.575 122.411C688.804 127.606 684.995 131.877 680.147 135.225C675.356 138.515 669.873 140.852 663.697 142.237V143.969C670.45 144.258 676.77 146.162 682.657 149.683C688.602 153.204 693.422 158.139 697.116 164.488C700.81 170.779 702.657 178.282 702.657 186.998C702.657 196.406 700.319 204.804 695.644 212.191C691.026 219.522 684.187 225.322 675.125 229.593C666.063 233.864 654.895 236 641.62 236H565.865ZM603.353 205.352H633.915C644.362 205.352 651.98 203.361 656.771 199.378C661.561 195.338 663.957 189.97 663.957 183.275C663.957 178.369 662.774 174.04 660.407 170.288C658.041 166.537 654.664 163.593 650.278 161.457C645.949 159.322 640.783 158.254 634.78 158.254H603.353V205.352ZM603.353 132.887H631.144C636.281 132.887 640.841 131.993 644.823 130.203C648.864 128.356 652.038 125.759 654.347 122.411C656.713 119.064 657.896 115.052 657.896 110.377C657.896 103.971 655.617 98.8048 651.057 94.88C646.555 90.9552 640.148 88.9927 631.837 88.9927H603.353V132.887ZM727.05 236V58.6909H764.537V205.092H840.552V236H727.05ZM1021.41 147.345C1021.41 166.681 1017.75 183.13 1010.42 196.694C1003.14 210.258 993.215 220.618 980.633 227.775C968.108 234.875 954.025 238.424 938.383 238.424C922.626 238.424 908.485 234.846 895.961 227.689C883.436 220.532 873.537 210.171 866.265 196.608C858.992 183.044 855.356 166.623 855.356 147.345C855.356 128.01 858.992 111.56 866.265 97.9967C873.537 84.433 883.436 74.1016 895.961 67.0023C908.485 59.8453 922.626 56.2668 938.383 56.2668C954.025 56.2668 968.108 59.8453 980.633 67.0023C993.215 74.1016 1003.14 84.433 1010.42 97.9967C1017.75 111.56 1021.41 128.01 1021.41 147.345ZM983.403 147.345C983.403 134.821 981.527 124.258 977.776 115.658C974.082 107.058 968.858 100.536 962.105 96.092C955.352 91.6478 947.445 89.4256 938.383 89.4256C929.322 89.4256 921.414 91.6478 914.661 96.092C907.908 100.536 902.656 107.058 898.904 115.658C895.21 124.258 893.363 134.821 893.363 147.345C893.363 159.87 895.21 170.433 898.904 179.033C902.656 187.632 907.908 194.155 914.661 198.599C921.414 203.043 929.322 205.265 938.383 205.265C947.445 205.265 955.352 203.043 962.105 198.599C968.858 194.155 974.082 187.632 977.776 179.033C981.527 170.433 983.403 159.87 983.403 147.345ZM1166.75 116.005C1165.54 111.791 1163.84 108.068 1161.64 104.836C1159.45 101.546 1156.77 98.7759 1153.59 96.5249C1150.47 94.2162 1146.9 92.4558 1142.86 91.2437C1138.87 90.0317 1134.46 89.4256 1129.61 89.4256C1120.55 89.4256 1112.58 91.6766 1105.71 96.1786C1098.9 100.681 1093.59 107.232 1089.78 115.832C1085.97 124.374 1084.07 134.821 1084.07 147.172C1084.07 159.524 1085.95 170.029 1089.7 178.686C1093.45 187.344 1098.76 193.953 1105.63 198.512C1112.5 203.014 1120.61 205.265 1129.96 205.265C1138.44 205.265 1145.68 203.765 1151.69 200.763C1157.75 197.704 1162.36 193.404 1165.54 187.863C1168.77 182.322 1170.39 175.771 1170.39 168.21L1178.01 169.336H1132.29V141.112H1206.49V163.449C1206.49 179.033 1203.2 192.423 1196.62 203.62C1190.04 214.76 1180.98 223.36 1169.43 229.42C1157.89 235.423 1144.67 238.424 1129.78 238.424C1113.16 238.424 1098.56 234.759 1085.97 227.429C1073.39 220.041 1063.58 209.565 1056.54 196.002C1049.55 182.38 1046.06 166.219 1046.06 147.519C1046.06 133.147 1048.14 120.334 1052.3 109.079C1056.51 97.7659 1062.4 88.1847 1069.96 80.3351C1077.52 72.4855 1086.32 66.5117 1096.36 62.4137C1106.41 58.3157 1117.29 56.2668 1129 56.2668C1139.05 56.2668 1148.4 57.7386 1157.05 60.6822C1165.71 63.5681 1173.39 67.666 1180.08 72.9761C1186.84 78.2861 1192.35 84.6062 1196.62 91.9364C1200.89 99.2088 1203.63 107.232 1204.84 116.005H1166.75Z" fill="#1A1A1A"/>
</svg>
